<svg width="1440" height="928" viewBox="0 0 1440 928" fill="none" xmlns="http://www.w3.org/2000/svg">
<line x1="1.74846e-08" y1="3.6" x2="1440" y2="3.60006" stroke="#E3E3E3" stroke-width="0.8" stroke-dasharray="5 5"/>
<line x1="1.74846e-08" y1="35.6001" x2="1440" y2="35.6001" stroke="#E3E3E3" stroke-width="0.8" stroke-dasharray="5 5"/>
<line x1="1.74846e-08" y1="115.6" x2="1440" y2="115.6" stroke="#E3E3E3" stroke-width="0.8" stroke-dasharray="5 5"/>
<line x1="1.74846e-08" y1="147.6" x2="1440" y2="147.6" stroke="#E3E3E3" stroke-width="0.8" stroke-dasharray="5 5"/>
<line x1="1.74846e-08" y1="227.6" x2="1440" y2="227.6" stroke="#E3E3E3" stroke-width="0.8" stroke-dasharray="5 5"/>
<line x1="1.74846e-08" y1="259.6" x2="1440" y2="259.6" stroke="#E3E3E3" stroke-width="0.8" stroke-dasharray="5 5"/>
<line x1="1.74846e-08" y1="339.6" x2="1440" y2="339.601" stroke="#E3E3E3" stroke-width="0.8" stroke-dasharray="5 5"/>
<line x1="1.74846e-08" y1="371.6" x2="1440" y2="371.601" stroke="#E3E3E3" stroke-width="0.8" stroke-dasharray="5 5"/>
<line x1="1.74846e-08" y1="451.601" x2="1440" y2="451.601" stroke="#E3E3E3" stroke-width="0.8" stroke-dasharray="5 5"/>
<line x1="1.74846e-08" y1="483.601" x2="1440" y2="483.601" stroke="#E3E3E3" stroke-width="0.8" stroke-dasharray="5 5"/>
<line x1="1.74846e-08" y1="563.601" x2="1440" y2="563.601" stroke="#E3E3E3" stroke-width="0.8" stroke-dasharray="5 5"/>
<line x1="1.74846e-08" y1="595.601" x2="1440" y2="595.601" stroke="#E3E3E3" stroke-width="0.8" stroke-dasharray="5 5"/>
<line x1="1.74846e-08" y1="675.601" x2="1440" y2="675.601" stroke="#E3E3E3" stroke-width="0.8" stroke-dasharray="5 5"/>
<line x1="1.74846e-08" y1="707.601" x2="1440" y2="707.601" stroke="#E3E3E3" stroke-width="0.8" stroke-dasharray="5 5"/>
<line x1="1.74846e-08" y1="787.601" x2="1440" y2="787.601" stroke="#E3E3E3" stroke-width="0.8" stroke-dasharray="5 5"/>
<line x1="1.74846e-08" y1="819.601" x2="1440" y2="819.601" stroke="#E3E3E3" stroke-width="0.8" stroke-dasharray="5 5"/>
<line x1="1.74846e-08" y1="899.601" x2="1440" y2="899.601" stroke="#E3E3E3" stroke-width="0.8" stroke-dasharray="5 5"/>
<line x1="3.59994" y1="40000" x2="3.60169" y2="-1.74841e-08" stroke="#E3E3E3" stroke-width="0.8" stroke-dasharray="5 5"/>
<line x1="35.6017" y1="40000" x2="35.6035" y2="-1.74841e-08" stroke="#E3E3E3" stroke-width="0.8" stroke-dasharray="5 5"/>
<line x1="115.603" y1="40000" x2="115.605" y2="-1.74841e-08" stroke="#E3E3E3" stroke-width="0.8" stroke-dasharray="5 5"/>
<line x1="147.605" y1="40000" x2="147.607" y2="-1.74841e-08" stroke="#E3E3E3" stroke-width="0.8" stroke-dasharray="5 5"/>
<line x1="227.607" y1="40000" x2="227.609" y2="-1.74841e-08" stroke="#E3E3E3" stroke-width="0.8" stroke-dasharray="5 5"/>
<line x1="259.609" y1="40000" x2="259.611" y2="-1.74841e-08" stroke="#E3E3E3" stroke-width="0.8" stroke-dasharray="5 5"/>
<line x1="339.61" y1="40000" x2="339.612" y2="-1.74841e-08" stroke="#E3E3E3" stroke-width="0.8" stroke-dasharray="5 5"/>
<line x1="371.612" y1="40000" x2="371.614" y2="-1.74841e-08" stroke="#E3E3E3" stroke-width="0.8" stroke-dasharray="5 5"/>
<line x1="451.614" y1="40000" x2="451.616" y2="-1.74841e-08" stroke="#E3E3E3" stroke-width="0.8" stroke-dasharray="5 5"/>
<line x1="483.616" y1="40000" x2="483.617" y2="-1.74841e-08" stroke="#E3E3E3" stroke-width="0.8" stroke-dasharray="5 5"/>
<line x1="563.617" y1="40000" x2="563.619" y2="-1.74841e-08" stroke="#E3E3E3" stroke-width="0.8" stroke-dasharray="5 5"/>
<line x1="595.619" y1="40000" x2="595.621" y2="-1.74841e-08" stroke="#E3E3E3" stroke-width="0.8" stroke-dasharray="5 5"/>
<line x1="675.621" y1="40000" x2="675.623" y2="-1.74841e-08" stroke="#E3E3E3" stroke-width="0.8" stroke-dasharray="5 5"/>
<line x1="707.623" y1="40000" x2="707.625" y2="-1.74841e-08" stroke="#E3E3E3" stroke-width="0.8" stroke-dasharray="5 5"/>
<line x1="787.624" y1="40000" x2="787.626" y2="-1.74841e-08" stroke="#E3E3E3" stroke-width="0.8" stroke-dasharray="5 5"/>
<line x1="819.626" y1="40000" x2="819.628" y2="-1.74841e-08" stroke="#E3E3E3" stroke-width="0.8" stroke-dasharray="5 5"/>
<line x1="899.628" y1="40000" x2="899.63" y2="-1.74841e-08" stroke="#E3E3E3" stroke-width="0.8" stroke-dasharray="5 5"/>
<line x1="931.63" y1="40000" x2="931.631" y2="-1.74841e-08" stroke="#E3E3E3" stroke-width="0.8" stroke-dasharray="5 5"/>
<line x1="1011.63" y1="40000" x2="1011.63" y2="-1.74841e-08" stroke="#E3E3E3" stroke-width="0.8" stroke-dasharray="5 5"/>
<line x1="1043.63" y1="40000" x2="1043.63" y2="-1.74841e-08" stroke="#E3E3E3" stroke-width="0.8" stroke-dasharray="5 5"/>
<line x1="1123.63" y1="40000" x2="1123.64" y2="-1.74841e-08" stroke="#E3E3E3" stroke-width="0.8" stroke-dasharray="5 5"/>
<line x1="1155.64" y1="40000" x2="1155.64" y2="-1.74841e-08" stroke="#E3E3E3" stroke-width="0.8" stroke-dasharray="5 5"/>
<line x1="1235.64" y1="40000" x2="1235.64" y2="-1.74841e-08" stroke="#E3E3E3" stroke-width="0.8" stroke-dasharray="5 5"/>
<line x1="1267.64" y1="40000" x2="1267.64" y2="-1.74841e-08" stroke="#E3E3E3" stroke-width="0.8" stroke-dasharray="5 5"/>
<line x1="1347.64" y1="40000" x2="1347.64" y2="-1.74841e-08" stroke="#E3E3E3" stroke-width="0.8" stroke-dasharray="5 5"/>
<line x1="1379.64" y1="40000" x2="1379.65" y2="-1.74841e-08" stroke="#E3E3E3" stroke-width="0.8" stroke-dasharray="5 5"/>
</svg>
